<svg xmlns="http://www.w3.org/2000/svg" width="40" height="40" viewBox="0 0 40 40"><style type="text/css">.st0{fill:none;stroke:#585C5E;stroke-width:2;stroke-miterlimit:10;} .st1{fill:none;stroke:#69AA6F;stroke-width:2;stroke-linejoin:bevel;stroke-miterlimit:10;}</style><path class="st0" d="M31 17H9c-4.4 0-8 3.5-8 7.9S4.6 33 9 33c2.8 0 5.3-1.8 6.7-4h8.7c1.4 2.2 3.9 4 6.7 4 4.4 0 8-3.7 8-8.1S35.4 17 31 17z"/><path class="st1" d="M9 20v10M14 25H4"/><circle class="st1" cx="31" cy="25" r="4"/><path class="st1" d="M31 20.7v8.6M35.3 25h-8.6"/><path class="st0" d="M20 17v-4h9V8h-7V4"/></svg>